
<!DOCTYPE svg PUBLIC "-//W3C//DTD SVG 20010904//EN"
 "http://www.w3.org/TR/2001/REC-SVG-20010904/DTD/svg10.dtd">
<svg version="1.0" xmlns="http://www.w3.org/2000/svg"
 width="1280.000000pt" height="1049.000000pt" viewBox="0 0 1280.000000 1049.000000"
 preserveAspectRatio="xMidYMid meet">
<g transform="translate(0.000000,1049.000000) scale(0.100000,-0.100000)"
fill="#2196f3" stroke="none">
<path d="M5940 10479 c-1401 -70 -2662 -403 -3715 -981 -848 -466 -1507 -1084
-1873 -1760 -534 -985 -454 -2088 219 -3030 589 -823 1585 -1500 2829 -1923
785 -267 1599 -417 2525 -466 254 -13 932 -7 1156 11 l146 12 2332 -1167
c1283 -641 2334 -1165 2336 -1163 1 2 -431 673 -961 1493 -530 820 -963 1492
-963 1495 -1 3 36 20 82 39 139 58 533 262 702 363 424 254 717 480 1036 798
331 330 549 628 725 995 326 679 371 1391 132 2089 -291 851 -1032 1642 -2073
2214 -955 524 -2119 857 -3345 956 -427 35 -911 44 -1290 25z"/>
</g>
</svg>
